<?xml version="1.0" encoding="UTF-8" standalone="no"?>
<!-- Generator: Adobe Illustrator 16.0.0, SVG Export Plug-In . SVG Version: 6.00 Build 0)  -->

<svg
   xmlns:dc="http://purl.org/dc/elements/1.1/"
   xmlns:cc="http://creativecommons.org/ns#"
   xmlns:rdf="http://www.w3.org/1999/02/22-rdf-syntax-ns#"
   xmlns:svg="http://www.w3.org/2000/svg"
   xmlns="http://www.w3.org/2000/svg"
   xmlns:sodipodi="http://sodipodi.sourceforge.net/DTD/sodipodi-0.dtd"
   xmlns:inkscape="http://www.inkscape.org/namespaces/inkscape"
   version="1.1"
   id="Capa_1"
   x="0px"
   y="0px"
   width="48"
   height="48"
   viewBox="0 0 47.999999 47.999999"
   xml:space="preserve"
   inkscape:version="0.48.4 r9939"
   sodipodi:docname="wearnow.svg"
   inkscape:export-filename="/home/benny/git/wearnow/images/wearnow.png"
   inkscape:export-xdpi="90"
   inkscape:export-ydpi="90"><metadata
     id="metadata49"><rdf:RDF><cc:Work
         rdf:about=""><dc:format>image/svg+xml</dc:format><dc:type
           rdf:resource="http://purl.org/dc/dcmitype/StillImage" /><dc:title></dc:title></cc:Work></rdf:RDF></metadata><defs
     id="defs47" /><sodipodi:namedview
     pagecolor="#ffffff"
     bordercolor="#666666"
     borderopacity="1"
     objecttolerance="10"
     gridtolerance="10"
     guidetolerance="10"
     inkscape:pageopacity="0"
     inkscape:pageshadow="2"
     inkscape:window-width="955"
     inkscape:window-height="909"
     id="namedview45"
     showgrid="false"
     inkscape:zoom="10.687673"
     inkscape:cx="27.938613"
     inkscape:cy="21.984482"
     inkscape:window-x="610"
     inkscape:window-y="41"
     inkscape:window-maximized="0"
     inkscape:current-layer="Capa_1" /><g
     id="g3013"
     transform="matrix(0.10073689,0,0,0.10073689,0.02703745,0.15027015)"><path
       style="fill:#75507b;fill-opacity:1;stroke:#5c3566;stroke-width:5;stroke-miterlimit:4;stroke-opacity:1;stroke-dasharray:none"
       inkscape:connector-curvature="0"
       id="path9"
       d="M 51.010364,185.75762 C 42.272069,223.22399 3.1543489,298.97931 3.1543489,298.97931 15.647962,311.46879 98.583232,337.25792 98.87878,333.94696 c 0.822574,-9.15165 6.65499,-34.14094 6.65499,-34.14094 11.98519,49.28002 16.49488,116.52439 17.82381,141.52608 14.2545,8.92844 106.14301,60.82705 229.16738,4.62543 0.96105,-19.96912 5.24132,-93.37245 18.07182,-146.15151 0,0 5.83035,24.97069 6.65913,34.14094 0.29968,3.3089 83.24528,-22.47817 95.72856,-34.96765 0,0 -39.13632,-75.75532 -47.88081,-113.22169 -8.24021,-35.36447 -14.19663,-42.55889 -42.84411,-51.65267 7.44657,11.50364 12.90284,26.61998 13.63241,47.20912 0.40508,11.48916 0.1922,17.32778 -3.48664,21.16164 -1.84149,1.89936 -4.29888,2.95134 -6.94021,2.95134 -4.10873,0 -7.16549,-2.27344 -11.38169,-5.42526 -6.24371,-4.6833 -15.68677,-11.72684 -30.89198,-13.4588 -4.92925,-0.57042 -9.19299,-1.07265 -12.83877,-1.51494 8.63909,30.88165 16.9227,55.5754 20.07659,59.55806 1.99856,2.50492 2.63306,5.71461 1.75675,8.8375 -1.11812,3.93306 -3.38743,11.88805 -59.97968,32.89675 7.55404,16.45767 12.22494,28.96369 13.40093,32.17338 0.0331,0.11987 0.0827,0.21494 0.10747,0.32861 l 0,0 c 1.4488,4.21208 -0.76884,8.80857 -4.98505,10.28217 -0.88664,0.30589 -1.78982,0.45883 -2.69299,0.45883 -3.32957,0 -6.45245,-2.07504 -7.63465,-5.386 l 0,0 c 0,-0.0331 0,-0.062 -0.0351,-0.0951 -0.57043,-1.54594 -5.96469,-15.14115 -18.73319,-16.42461 -13.03717,-1.3 -121.72437,-35.25493 -129.20194,-53.0064 -1.46533,-3.45357 -0.95691,-7.21715 1.31654,-10.07549 3.16008,-3.98887 11.43749,-28.68261 20.06418,-59.56219 -3.63544,0.44642 -7.89712,0.96104 -12.81603,1.51494 -15.21968,1.74848 -24.66274,8.79203 -30.92298,13.44226 -4.22034,3.15595 -7.27296,5.42113 -11.37549,5.42113 -2.64547,0 -5.10492,-1.05612 -6.94435,-2.94928 -3.695377,-3.83385 -3.910321,-9.65801 -3.4887,-21.16164 0.956914,-26.59517 9.78201,-43.98289 20.60774,-56.33183 -6.44418,2.81287 -13.11157,5.4418 -19.989776,7.51684 -33.299768,10.00315 -39.125987,15.83351 -47.87255,53.29161 z M 268.90352,321.45128 c 6.21064,0 11.23909,5.03258 11.23909,11.23909 0,6.22097 -5.02845,11.24322 -11.23909,11.24322 -6.20444,0 -11.24735,-5.02432 -11.24735,-11.24322 0.0165,-6.20651 5.04291,-11.23909 11.24735,-11.23909 z m 0,69.91257 c 6.21064,0 11.23909,5.03258 11.23909,11.24322 0,6.21063 -5.02845,11.24321 -11.23909,11.24321 -6.20444,0 -11.24735,-5.03258 -11.24735,-11.24321 0,-6.21064 5.04291,-11.24322 11.24735,-11.24322 z m -69.92083,-69.91257 c 6.22097,0 11.24322,5.03258 11.24322,11.23909 0,6.22097 -5.02431,11.24322 -11.24322,11.24322 -6.2065,0 -11.23908,-5.02432 -11.23908,-11.24322 0,-6.20651 5.03258,-11.23909 11.23908,-11.23909 z m 0,69.91257 c 6.22097,0 11.24322,5.03258 11.24322,11.24322 0,6.21063 -5.02431,11.24321 -11.24322,11.24321 -6.2065,0 -11.23908,-5.03258 -11.23908,-11.24321 0,-6.21064 5.03258,-11.24322 11.23908,-11.24322 z" /><path
       style="fill:#3465a4;fill-opacity:1;stroke:#204a87;stroke-width:3.5999999;stroke-miterlimit:4;stroke-opacity:1;stroke-dasharray:none"
       inkscape:connector-curvature="0"
       id="path11"
       d="m 344.10701,249.63522 c -7.06421,-8.8251 -23.04033,-67.63912 -24.81361,-74.30031 -3.31303,-0.55596 -2.44499,-0.64896 -1.39094,-0.64896 0.5787,0 1.23386,0.0289 1.23386,0.0289 0,0 0.0496,0.20668 0.15708,0.6221 3.19729,0.51256 10.27183,1.45707 24.81361,3.12702 25.35511,2.89761 36.88355,18.81792 41.37257,18.81792 2.26104,0 2.74053,-4.00126 2.32718,-15.7033 -0.82671,-23.31521 -8.11827,-39.05572 -18.39424,-50.9169 -5.11938,-5.91716 -10.94974,-10.94974 -17.19344,-15.34782 -18.74559,-13.19218 -33.08276,-41.116286 -33.08276,-41.116286 0,0 -4.37328,83.656576 -48.69306,123.617536 -6.38631,5.74355 -12.34067,12.58868 -18.06355,19.7583 1.53974,2.05023 3.03195,4.17487 4.51382,6.26644 12.9297,18.25576 23.72237,38.13187 31.83857,55.08764 30.78657,-11.47263 59.2687,-24.38993 55.37491,-29.29231 z" /><path
       style="fill:#3465a4;fill-opacity:1;stroke:#204a87;stroke-width:3.5999999;stroke-miterlimit:4;stroke-opacity:1;stroke-dasharray:none"
       inkscape:connector-curvature="0"
       id="path13"
       d="m 281.04579,281.759 c -7.63671,-15.81078 -17.61714,-34.21535 -29.39565,-51.18558 -1.47567,-2.1205 -2.95341,-4.23687 -4.48902,-6.31191 -0.83291,-1.11812 -1.68855,-2.20317 -2.54006,-3.31303 -0.83704,-1.10158 -1.71955,-2.18664 -2.57106,-3.27169 -5.78488,-7.25436 -11.88598,-14.03749 -18.30743,-19.84511 -3.19315,-2.86867 -6.13416,-6.03703 -8.92017,-9.33352 -19.95671,-23.47229 -30.00327,-55.95568 -34.98005,-80.35595 -4.00746,-19.56609 -4.8073,-33.944596 -4.8073,-33.944596 0,0 -10.65626,20.675948 -25.58039,34.856046 -2.40985,2.28171 -4.90444,4.43115 -7.50443,6.25611 -18.73526,13.19424 -34.34349,31.30326 -35.59388,66.26471 -0.41956,11.68551 0.062,15.70331 2.33545,15.70331 4.49315,0 16.01538,-15.92032 41.37049,-18.81793 14.53972,-1.66994 21.61426,-2.61446 24.81362,-3.12702 0.11161,-0.41542 0.15707,-0.62209 0.15707,-0.62209 0,0 0.64897,-0.0289 1.238,-0.0289 1.05198,0 1.91796,0.0951 -1.39507,0.64897 -1.78569,6.64672 -17.75354,65.46074 -24.81362,74.30031 -5.02431,6.29951 43.37526,25.77053 81.42033,38.48942 1.20079,0.40096 2.39745,0.81638 3.56931,1.2008 17.09424,5.61127 31.62362,9.689 37.3713,10.26977 17.68327,1.76502 24.78055,19.64669 25.54112,21.65766 -0.63863,-1.68442 -5.417,-14.64719 -13.50013,-32.12171 -0.53736,-1.19666 -1.14292,-2.45325 -1.72162,-3.70365 -0.57043,-1.22146 -1.09332,-2.39332 -1.69681,-3.66438 z" /><g
       id="g15" /><g
       id="g17" /><g
       id="g19" /><g
       id="g21" /><g
       id="g23" /><g
       id="g25" /><g
       id="g27" /><g
       id="g29" /><g
       id="g31" /><g
       id="g33" /><g
       id="g35" /><g
       id="g37" /><g
       id="g39" /><g
       id="g41" /><g
       id="g43" /><path
       transform="matrix(1.1399196,0,0,1.1399196,37.133991,-61.765426)"
       sodipodi:open="true"
       sodipodi:end="7.9147455"
       sodipodi:start="3.1987131"
       d="m 268.48428,110.93323 c 1.74734,-30.557273 27.93541,-53.912331 58.49268,-52.164985 30.55727,1.747346 53.91233,27.935411 52.16498,58.492685 -1.74734,30.55727 -27.93541,53.91232 -58.49268,52.16498 -0.0672,-0.004 -0.13438,-0.008 -0.20156,-0.0119"
       sodipodi:ry="55.419216"
       sodipodi:rx="55.419216"
       sodipodi:cy="114.09708"
       sodipodi:cx="323.81311"
       id="path5621"
       style="opacity:0.59090905;fill:none;stroke:#555753;stroke-width:7;stroke-linecap:round;stroke-linejoin:round;stroke-miterlimit:4;stroke-opacity:1;stroke-dasharray:none;stroke-dashoffset:0"
       sodipodi:type="arc" /><path
       transform="matrix(0.60334196,0,0,0.60334196,212.67306,-0.84058476)"
       sodipodi:open="true"
       sodipodi:end="7.9147455"
       sodipodi:start="3.1987131"
       d="m 268.48428,110.93323 c 1.74734,-30.557273 27.93541,-53.912331 58.49268,-52.164985 30.55727,1.747346 53.91233,27.935411 52.16498,58.492685 -1.74734,30.55727 -27.93541,53.91232 -58.49268,52.16498 -0.0672,-0.004 -0.13438,-0.008 -0.20156,-0.0119"
       sodipodi:ry="55.419216"
       sodipodi:rx="55.419216"
       sodipodi:cy="114.09708"
       sodipodi:cx="323.81311"
       id="path5621-2"
       style="opacity:0.59090905;fill:none;stroke:#555753;stroke-width:13.22539806;stroke-linecap:round;stroke-linejoin:round;stroke-miterlimit:4;stroke-opacity:1;stroke-dasharray:none;stroke-dashoffset:0"
       sodipodi:type="arc" /></g></svg>