<?xml version="1.0" encoding="UTF-8" standalone="no"?>
<!-- Generator: Adobe Illustrator 16.0.0, SVG Export Plug-In . SVG Version: 6.00 Build 0)  -->

<svg
   xmlns:dc="http://purl.org/dc/elements/1.1/"
   xmlns:cc="http://creativecommons.org/ns#"
   xmlns:rdf="http://www.w3.org/1999/02/22-rdf-syntax-ns#"
   xmlns:svg="http://www.w3.org/2000/svg"
   xmlns="http://www.w3.org/2000/svg"
   xmlns:sodipodi="http://sodipodi.sourceforge.net/DTD/sodipodi-0.dtd"
   xmlns:inkscape="http://www.inkscape.org/namespaces/inkscape"
   version="1.1"
   id="Capa_1"
   x="0px"
   y="0px"
   width="485.946px"
   height="485.946px"
   viewBox="0 0 485.946 485.946"
   style="enable-background:new 0 0 485.946 485.946;"
   xml:space="preserve"
   inkscape:version="0.48.4 r9939"
   sodipodi:docname="wearnow-ensemble.svg"
   inkscape:export-filename="/home/benny/git/wearnow/images/hicolor/16x16/actions/wearnow-ensemble.png"
   inkscape:export-xdpi="2.96"
   inkscape:export-ydpi="2.96"><metadata
     id="metadata43"><rdf:RDF><cc:Work
         rdf:about=""><dc:format>image/svg+xml</dc:format><dc:type
           rdf:resource="http://purl.org/dc/dcmitype/StillImage" /><dc:title></dc:title></cc:Work></rdf:RDF></metadata><defs
     id="defs41" /><sodipodi:namedview
     pagecolor="#ffffff"
     bordercolor="#666666"
     borderopacity="1"
     objecttolerance="10"
     gridtolerance="10"
     guidetolerance="10"
     inkscape:pageopacity="0"
     inkscape:pageshadow="2"
     inkscape:window-width="640"
     inkscape:window-height="480"
     id="namedview39"
     showgrid="false"
     inkscape:zoom="0.48565065"
     inkscape:cx="242.97301"
     inkscape:cy="242.97301"
     inkscape:window-x="0"
     inkscape:window-y="0"
     inkscape:window-maximized="0"
     inkscape:current-layer="Capa_1" /><g
     id="g3"><g
       id="g5"><path
         d="M338.122,282.09l-40.543-117.134c-5.155-14.855-4.077-31.148,2.944-45.195l24.297-48.609    c3.32-6.629,3.543-14.363,0.634-21.168c-2.927-6.801-8.698-11.957-15.759-14.109l-22.809-6.961    c-7.656-2.34-12.875-9.395-12.875-17.383C274.011,5.156,268.851,0,262.48,0h-39.027c-6.375,0-11.547,5.156-11.547,11.547    c0,7.988-5.219,15.027-12.859,17.367l-22.797,6.961c-7.086,2.152-12.844,7.309-15.754,14.109    c-2.926,6.805-2.703,14.555,0.602,21.168l24.313,48.609c7.023,14.047,8.082,30.34,2.957,45.195L147.809,282.09v0.021l0,0    c0.031,7.336,34.152,13.414,78.969,14.612v150.672c-30.184,2.074-52.645,9.763-52.645,18.97c0,10.819,30.813,19.582,68.84,19.582    c38.012,0,68.844-8.763,68.844-19.582c0-9.207-22.492-16.896-52.645-18.97V296.723c44.797-1.198,78.934-7.276,78.965-14.612l0,0    L338.122,282.09z"
         id="path7" /></g></g><g
     id="g9" /><g
     id="g11" /><g
     id="g13" /><g
     id="g15" /><g
     id="g17" /><g
     id="g19" /><g
     id="g21" /><g
     id="g23" /><g
     id="g25" /><g
     id="g27" /><g
     id="g29" /><g
     id="g31" /><g
     id="g33" /><g
     id="g35" /><g
     id="g37" /></svg>