<?xml version="1.0" encoding="UTF-8" standalone="no"?>
<svg
   xmlns:dc="http://purl.org/dc/elements/1.1/"
   xmlns:cc="http://creativecommons.org/ns#"
   xmlns:rdf="http://www.w3.org/1999/02/22-rdf-syntax-ns#"
   xmlns:svg="http://www.w3.org/2000/svg"
   xmlns="http://www.w3.org/2000/svg"
   xmlns:sodipodi="http://sodipodi.sourceforge.net/DTD/sodipodi-0.dtd"
   xmlns:inkscape="http://www.inkscape.org/namespaces/inkscape"
   width="48"
   height="48"
   id="svg2"
   version="1.1"
   inkscape:version="0.48.4 r9939"
   sodipodi:docname="wearnow-comfort.svg"
   inkscape:export-filename="/home/benny/git/wearnow/images/hicolor/16x16/actions/wearnow-comfort.png"
   inkscape:export-xdpi="30"
   inkscape:export-ydpi="30">
  <title
     id="title4080">women walking</title>
  <metadata
     id="metadata26">
    <rdf:RDF>
      <cc:Work
         rdf:about="">
        <dc:format>image/svg+xml</dc:format>
        <dc:type
           rdf:resource="http://purl.org/dc/dcmitype/StillImage" />
        <dc:title>women walking</dc:title>
        <dc:date>12/21/2013</dc:date>
        <dc:creator>
          <cc:Agent>
            <dc:title>edited by Paul Sherman</dc:title>
          </cc:Agent>
        </dc:creator>
        <dc:rights>
          <cc:Agent>
            <dc:title>PD</dc:title>
          </cc:Agent>
        </dc:rights>
        <dc:publisher>
          <cc:Agent>
            <dc:title>WPClipart</dc:title>
          </cc:Agent>
        </dc:publisher>
        <dc:subject>
          <rdf:Bag>
            <rdf:li>women</rdf:li>
            <rdf:li>walking</rdf:li>
          </rdf:Bag>
        </dc:subject>
        <cc:license
           rdf:resource="http://creativecommons.org/publicdomain/zero/1.0/" />
      </cc:Work>
      <cc:License
         rdf:about="http://creativecommons.org/publicdomain/zero/1.0/">
        <cc:permits
           rdf:resource="http://creativecommons.org/ns#Reproduction" />
        <cc:permits
           rdf:resource="http://creativecommons.org/ns#Distribution" />
        <cc:permits
           rdf:resource="http://creativecommons.org/ns#DerivativeWorks" />
      </cc:License>
    </rdf:RDF>
  </metadata>
  <defs
     id="defs24" />
  <sodipodi:namedview
     pagecolor="#ffffff"
     bordercolor="#666666"
     borderopacity="1"
     objecttolerance="10"
     gridtolerance="10"
     guidetolerance="10"
     inkscape:pageopacity="0"
     inkscape:pageshadow="2"
     inkscape:window-width="1545"
     inkscape:window-height="994"
     id="namedview22"
     showgrid="true"
     fit-margin-top="4"
     fit-margin-left="4"
     fit-margin-right="4"
     fit-margin-bottom="4"
     inkscape:zoom="3.8814172"
     inkscape:cx="93.400806"
     inkscape:cy="-35.947091"
     inkscape:window-x="0"
     inkscape:window-y="0"
     inkscape:window-maximized="0"
     inkscape:current-layer="svg2"
     inkscape:document-units="cm"
     units="px" />
  <path
     style="fill:#000000;fill-rule:evenodd;stroke:#000000;stroke-width:0.04091968px"
     inkscape:connector-curvature="0"
     d="m 24.226554,14.557975 0.02455,0.01637 0.02455,0.01637 0.01637,0.02455 0.01637,0.02455 0.02455,0.01637 0.02455,0.01637 0.01637,0.02455 0.01637,0.02455 0.02455,0.01637 0.02455,0.01637 0.01637,0.02455 -0.122759,0.04092 -0.122759,0.04092 -0.245518,0.04092 q -0.245518,0.04092 -0.409197,0.08184 l -0.163679,0.04092 0.01637,0.02455 0.02455,0.01637 0.04092,0.08184 0.04092,0.08184 0.02455,0.01637 0.01637,0.02455 0.310989,0.433747 q 0.302806,0.425566 0.302806,2.021433 0,1.595868 -0.204598,3.191736 -0.204598,1.595867 -0.163679,2.250582 0.04092,0.654715 0.409197,1.104831 0.368277,0.450117 0.392828,0.531956 l 0.01637,0.08184 0.245518,-0.04092 q 0.245518,-0.04092 0.327358,-0.220967 0.08184,-0.18823 0.09821,-0.212781 l 0.02455,-0.01637 -0.02455,0.204599 q -0.01637,0.204598 1.170301,0.204598 l 1.186672,0 0.122759,0.01637 0.122759,0.02455 0,0.02455 0,0.01637 -0.613795,0.01637 q -0.613795,0.02455 -1.26851,0.0491 -0.654715,0.01637 -0.671084,0.220967 -0.02455,0.204599 -0.130941,0.270069 -0.09821,0.05729 -0.630165,0.278256 -0.531956,0.229149 -0.597426,0.842944 l -0.05729,0.613796 -0.02455,0.04092 -0.01637,0.04092 -0.04092,-0.01637 -0.04092,-0.02455 -0.01637,-0.02455 -0.02455,-0.01637 -0.04092,0.08184 -0.04092,0.08184 -0.02455,-0.01637 -0.01637,-0.02455 -0.01637,-0.02455 -0.02455,-0.01637 -0.02455,0 -0.01637,0 0.01637,-0.163679 0.02455,-0.163679 0.04092,-0.327357 q 0.04092,-0.327357 0.04092,-0.695635 0,-0.368277 -0.450117,-1.514028 -0.450119,-1.145757 -0.491038,-4.50117 -0.04092,-3.355414 -0.589244,-3.862819 -0.556507,-0.515587 -1.211222,-0.540138 l -0.654715,-0.01637 -0.01637,-0.572875 q -0.02455,-0.572876 -0.679267,-1.473109 l -0.654715,-0.900233 -0.02455,-0.01637 -0.01637,-0.02455 -0.01637,-0.02455 -0.02455,-0.01637 -0.04092,-0.08184 -0.04092,-0.08184 -0.02455,-0.01637 -0.01637,-0.02455 -0.01637,-0.02455 -0.02455,-0.01637 -0.04092,0.08184 -0.04092,0.08184 -0.04092,0.08184 -0.04092,0.08184 -0.04092,0.122759 -0.04092,0.122759 -0.245518,0.777474 q -0.245518,0.777474 -0.204598,1.432189 0.04092,0.654715 0.409197,1.718626 0.368277,1.063912 0.802026,1.964145 0.425564,0.900233 0.327357,0.982072 -0.106391,0.08184 0.425565,0.982073 0.531955,0.900233 0.777474,1.964144 0.245518,1.063912 0.409196,3.519093 0.163679,2.455181 0.204599,4.583004 0.04092,2.127823 0.392829,2.76617 0.343725,0.630163 1.03936,1.325798 0.695634,0.695635 1.170302,1.16212 0.466485,0.474667 0.793842,1.170302 0.327358,0.695634 0.777474,2.455181 0.450116,1.759546 0.671083,2.103272 0.22915,0.351908 0.924784,0.802025 0.695635,0.450116 1.252142,1.3749 0.548324,0.916602 0.572875,0.932971 l 0.01637,0.02455 0.01637,0.02455 0.02455,0.01637 0.02455,0.01637 0.01637,0.02455 0.01637,0.02455 0.02455,0.01637 0.02455,0.01637 0.01637,0.02455 0.01637,0.02455 0.02455,0.01637 0.02455,0.01637 0.01637,0.02455 0.01637,0.02455 0.02455,0.01637 0.02455,0.01637 0.01637,0.02455 0.01637,0.02455 0.02455,0.01637 0.02455,0.08184 0.01637,0.08184 -0.08184,0.01637 -0.08184,0.02455 -0.04092,0 -0.04092,0 -0.01637,-0.02455 -0.02455,-0.01637 -0.04092,-0.08184 -0.04092,-0.08184 -0.04092,-0.08184 -0.04092,-0.08184 -0.02455,-0.01637 -0.01637,-0.02455 -0.01637,-0.02455 -0.02455,-0.01637 -0.04092,-0.08184 q -0.04092,-0.08184 -0.327357,-0.368277 l -0.286438,-0.286438 -0.02455,-0.01637 -0.01637,-0.02455 -0.08184,-0.04092 -0.08184,-0.04092 -0.122759,-0.04092 -0.12276,-0.04092 -0.01637,-0.02455 -0.02455,-0.01637 -0.02455,0.01637 -0.01637,0.02455 -0.01637,0.02455 -0.02455,0.01637 -0.04092,0.08184 -0.04092,0.08184 -0.04092,0.08184 -0.04092,0.08184 0,0.654715 q 0,0.654715 0.08184,1.063912 0.08184,0.409197 -0.761105,0.916601 -0.834762,0.515588 -1.039361,0.638347 -0.204598,0.122759 -0.327357,0.163678 l -0.122759,0.04092 -0.08184,0.04092 -0.08184,0.04092 -0.122759,0.04092 -0.122759,0.04092 -0.122759,0.02455 -0.122759,0.01637 0.01637,-0.245518 0.02455,-0.245518 0.02455,-0.01637 0.01637,-0.02455 0.01637,-0.02455 0.02455,-0.01637 0.02455,-0.01637 0.01637,-0.02455 0.01637,-0.02455 0.02455,-0.01637 0.02455,-0.01637 0.01637,-0.02455 0.01637,-0.02455 q 0.02455,-0.01637 0.212781,-0.163679 0.180047,-0.139128 0.441933,-0.491036 0.27007,-0.343726 0.351909,-0.712003 0.08184,-0.368277 -0.245518,-1.636787 -0.327352,-1.268513 -0.900227,-2.496103 -0.572876,-1.22759 -2.741619,-4.501165 -2.168743,-3.273574 -2.438812,-3.666402 -0.261886,-0.384646 -1.612236,-0.425566 -1.350349,-0.04092 -2.987137,-0.245518 -1.636787,-0.204598 -1.923224,0.08184 -0.286438,0.286438 -0.515588,0.802025 -0.220967,0.507405 -0.384645,3.044425 -0.163679,2.537021 -0.818394,3.969209 -0.654715,1.432189 -0.900233,2.332422 -0.245518,0.900233 -0.122759,1.759546 0.122759,0.859314 0,1.30943 -0.122759,0.450117 -0.180047,1.30943 l -0.06547,0.859313 -0.08184,-0.01637 -0.08184,-0.02455 -0.08184,-0.04092 -0.08184,-0.04092 0.01637,-0.02455 0.02455,-0.01637 0.04092,-0.122759 0.04092,-0.122759 0,-0.654715 0,-0.654714 -0.04092,-0.08184 -0.04092,-0.08184 -0.02455,-0.08184 -0.01637,-0.08184 -0.204598,0.01637 -0.204598,0.02455 -0.08184,0.04092 -0.08184,0.04092 -0.01637,0.02455 -0.02455,0.01637 -0.02455,0.01637 -0.01637,0.02455 -0.31099,0.302806 q -0.302806,0.310989 -0.572876,0.785656 -0.261885,0.466485 -1.325797,0.261887 -1.063912,-0.204598 -1.186671,-0.245518 -0.122759,-0.04092 -0.245518,-0.08184 l -0.122759,-0.04092 -0.122759,-0.04092 -0.122759,-0.04092 -0.08184,-0.04092 -0.08184,-0.04092 -0.08184,-0.02455 -0.08184,-0.01637 0.01637,-0.08184 0.02455,-0.08184 0.02455,-0.01637 0.01637,-0.02455 0.01637,-0.02455 0.02455,-0.01637 0.02455,-0.01637 0.01637,-0.02455 0.08184,-0.04092 0.08184,-0.04092 0.695634,-0.04092 q 0.695635,-0.04092 1.063912,-0.204599 0.368277,-0.163678 0.95752,-1.203039 0.597428,-1.047543 1.047544,-2.316053 0.450117,-1.26851 1.145752,-5.687836 0.6956338,-4.419325 2.0459838,-7.774739 1.350349,-3.355414 2.291502,-5.769675 0.941152,-2.414261 0.777474,-3.068976 -0.163679,-0.654715 -0.433749,-0.613795 -0.261886,0.04092 -0.409197,-2.005064 l -0.139128,-2.045977 -0.02455,0.01637 -0.01637,0.02455 -0.01637,0.02455 -0.02455,0.01637 -0.02455,0.01637 -0.01637,0.02455 -0.01637,0.02455 -0.02455,0.01637 -0.04092,0.08184 -0.04092,0.08184 -0.02455,0.01637 -0.01637,0.02455 -0.01637,0.02455 -0.02455,0.01637 -0.859313,1.104832 q -0.859313,1.104831 -2.291502,2.57794 -1.4321888,1.473108 -1.8823048,2.168743 -0.450117,0.695634 -0.491037,1.473108 -0.04092,0.777474 -0.04092,1.022992 l 0,0.245518 0.04092,0.08184 0.04092,0.08184 0.02455,0.08184 0.01637,0.08184 -0.08184,0 -0.08184,0 -0.01637,-0.08184 -0.02455,-0.08184 -0.04092,-0.163679 q -0.04092,-0.163678 -0.08184,-0.327357 l -0.04092,-0.163679 -0.04092,-0.08184 -0.04092,-0.08184 -0.02455,0.01637 -0.01637,0.02455 -0.01637,0.02455 -0.02455,0.01637 -0.02455,0.01637 -0.01637,0.02455 -0.01637,0.02455 -0.02455,0.01637 -0.04092,0.122759 -0.04092,0.122759 -0.04092,0.08184 -0.04092,0.08184 -0.163678,0.368277 q -0.163679,0.368277 -0.204599,0.777474 l -0.04092,0.409197 -0.04092,-0.613795 -0.04092,-0.613796 -0.02455,0.01637 -0.01637,0.02455 -0.01637,0.02455 -0.02455,0.01637 -0.04092,0.08184 -0.04092,0.08184 -0.04092,0.08184 q -0.04092,0.08184 -0.08184,0.163679 l -0.04092,0.08184 -0.04092,0.122759 -0.04092,0.122759 -0.04092,0.08184 -0.04092,0.08184 0,-0.163679 0,-0.163679 0.04092,-0.163678 0.04092,-0.163679 0.04092,-0.122759 q 0.04092,-0.122759 0.08184,-0.368277 0.04092,-0.245518 0.531956,-1.514028 0.491036,-1.268511 1.227591,-2.57794 0.736554,-1.30943 1.4731078,-2.209663 0.736554,-0.900233 1.333982,-1.407638 0.589243,-0.515587 0.982072,-0.900233 0.384645,-0.392828 0.834761,-1.906856 0.450117,-1.514028 0.245518,-2.168743 -0.204598,-0.654715 -0.368277,-1.30943 -0.163678,-0.654715 0,-1.104831 0.163679,-0.4501169 1.227591,-0.9820729 1.06392,-0.531965 1.350357,-0.941163 0.286438,-0.409196 0.327358,-0.859313 0.04092,-0.450116 -0.180047,-0.679267 -0.22915,-0.220966 -0.02455,-0.327357 0.204599,-0.09821 0.106392,-0.425565 l -0.106392,-0.327357 -0.02455,-0.01637 q -0.01637,-0.02455 -0.05729,-0.06547 -0.04092,-0.04092 -0.777474,-0.08184 l -0.736554,-0.04092 -0.01637,-0.02455 -0.02455,-0.01637 -0.02455,-0.01637 -0.01637,-0.02455 -0.01637,-0.02455 -0.02455,-0.01637 0,-0.204598 q 0,-0.204599 0.04092,-0.286438 0.04092,-0.08184 -0.06547,-0.245518 -0.09821,-0.163679 0.08184,-0.245518 0.18823,-0.08184 -0.01637,-0.204599 -0.204598,-0.122759 -0.163679,-0.327357 0.04092,-0.204599 -0.08184,-0.327358 -0.122759,-0.122759 0.163679,-0.368277 0.286438,-0.245518 0.491036,-1.022992 l 0.204598,-0.777474 0.04092,-0.08184 0.04092,-0.08184 0.02455,-0.01637 0.01637,-0.02455 -0.08184,0 q -0.08184,0 -0.122759,0.106391 -0.04092,0.09821 -0.122759,0.09821 l -0.08184,0 0.01637,-0.08184 0.02455,-0.08184 0.04092,-0.08184 0.04092,-0.08184 0.04092,-0.08184 0.04092,-0.081838 0.466484,-0.343725 q 0.47467,-0.3519104 1.006626,-0.4746695 0.531956,-0.122759 1.186671,-0.04092 0.654714,0.081839 1.18667,0.4091968 0.531956,0.3273575 0.572876,0.4337489 0.04092,0.098207 0.613795,0.16367896 0.572876,0.05729 0.965704,0.441932 0.384645,0.392829 0.793842,1.088463 0.409197,0.695635 0.654715,1.759547 0.245518,1.063911 0.409197,3.887369 0.163679,2.8234587 0.531956,3.8873697 0.368277,1.063912 0.802025,1.734995 0.425565,0.679266 0.441934,0.703817 z M 20.200057,9.6230631 20.159137,10.400537 19.774492,9.8440291 q -0.392829,-0.548324 -0.491036,-0.851129 -0.106391,-0.31099 -0.27007,-0.597428 -0.163679,-0.286438 -0.531956,-1.30943 -0.368277,-1.022992 -0.556508,-1.063911 -0.180046,-0.04092 -0.08184,-0.531956 0.106391,-0.491036 0.597427,-1.022992 0.491036,-0.531956 0.736555,-1.104832 0.245518,-0.572875 0.139126,-1.309429 -0.09821,-0.736555 0.08184,-0.654715 0.18823,0.08184 0.474668,0.491036 0.286438,0.409197 0.327358,3.682771 0.04092,3.273575 0,4.051049 z"
     id="svg_3" />
  <path
     style="fill:#000000;fill-rule:evenodd;stroke:#000000;stroke-width:0.04091968px"
     inkscape:connector-curvature="0"
     d="m 31.755775,26.015486 0.02455,0.01637 0.02455,0.01637 0.01637,0.02455 0.01637,0.02455 0.02455,0.01637 0.02455,0.01637 0.01637,0.02455 0.01637,0.02455 0.02455,0.01637 0.02455,0.01637 0.01637,0.02455 0.01637,0.02455 0.02455,0.01637 0.02455,0.01637 0.01637,0.02455 0.08184,0.02455 0.08184,0.01637 0.01637,-0.163679 0.02455,-0.163678 0.02455,0 0.01637,0 0.04092,-0.06547 q 0.04092,-0.05729 0.122759,-0.08184 l 0.08184,-0.01637 -0.06547,0.122759 q -0.05729,0.122759 -0.09821,0.245518 l -0.04092,0.122759 0.05729,0.180047 q 0.06547,0.18823 1.33398,1.53858 1.268511,1.350349 1.284879,1.3749 l 0.02455,0.01637 0,0.08184 0,0.08184 -0.02455,0.01637 -0.01637,0.02455 -3.830082,3.379965 q -3.821899,3.371782 -3.84645,3.388151 l -0.01637,0.02455 -0.01637,0.02455 -0.02455,0.01637 -0.02455,0.01637 -0.01637,0.02455 -0.122759,0.02455 -0.122759,0.01637 -0.01637,-0.08184 -0.02455,-0.08184 -0.02455,-0.01637 q -0.01637,-0.02455 -1.882306,-3.02806 -1.857754,-3.011687 -1.694075,-4.443876 l 0.163679,-1.432189 0.02455,-0.122759 0.01637,-0.122759 0.01637,0 0.02455,0 0.02455,0.01637 0.01637,0.02455 0.01637,0.02455 0.02455,0.01637 0.04092,-0.08184 0.04092,-0.08184 0.02455,0.01637 0.01637,0.02455 0.04092,0.02455 0.04092,0.01637 -0.06547,0.654715 q -0.05729,0.654715 -0.09821,1.022992 l -0.04092,0.368277 0,0.245518 0,0.245518 0.02455,-0.01637 0.01637,-0.02455 0.01637,-0.02455 0.02455,-0.01637 0.02455,-0.01637 0.01637,-0.02455 0.08184,-0.04092 0.08184,-0.04092 0.01637,-0.02455 0.02455,-0.01637 0.02455,-0.01637 0.01637,-0.02455 0.01637,-0.02455 0.02455,-0.01637 0.02455,-0.01637 0.01637,-0.02455 0.01637,-0.02455 0.02455,-0.01637 0.02455,-0.01637 q 0.01637,-0.02455 2.700698,-2.045984 l 2.676148,-2.029616 0.02455,-0.01637 0.01637,-0.02455 0.01637,-0.02455 0.02455,-0.01637 0.02455,-0.01637 0.01637,-0.02455 0.01637,-0.02455 0.02455,-0.01637 0.02455,-0.01637 0.01637,-0.02455 0.08184,-0.04092 0.08184,-0.04092 0.01637,-0.02455 0.02455,-0.01637 0.02455,-0.01637 0.01637,-0.02455 0.01637,-0.02455 0.02455,-0.01637 0.02455,-0.01637 0.01637,-0.02455 -0.859313,0 -0.859314,0 -0.245518,0.02455 -0.245518,0.01637 0,-0.01637 0,-0.02455 -0.122759,-0.02455 -0.122759,-0.01637 0,-0.01637 0,-0.02455 1.473109,0 q 1.473108,0 2.045984,0.613796 0.572875,0.613795 0.589244,0.638346 z"
     id="svg_5" />
  <path
     style="fill:#fefefe;fill-rule:evenodd;stroke:#fefefe;stroke-width:0.04091968px"
     inkscape:connector-curvature="0"
     d="m 28.138474,24.869735 0.245518,-0.02455 0.859314,0 0.859313,0 -0.01637,0.02455 -0.02455,0.01637 -0.02455,0.01637 -0.01637,0.02455 -0.01637,0.02455 -0.02455,0.01637 -0.02455,0.01637 -0.01637,0.02455 -0.08184,0.04092 -0.08184,0.04092 -0.01637,0.02455 -0.02455,0.01637 -0.02455,0.01637 -0.01637,0.02455 -0.01637,0.02455 -0.02455,0.01637 -0.02455,0.01637 -0.01637,0.02455 -0.01637,0.02455 -0.02455,0.01637 -2.676148,2.029616 q -2.68433,2.021433 -2.700699,2.045984 l -0.02455,0.01637 -0.02455,0.01637 -0.01637,0.02455 -0.01637,0.02455 -0.02455,0.01637 -0.02455,0.01637 -0.01637,0.02455 -0.01637,0.02455 -0.02455,0.01637 -0.02455,0.01637 -0.01637,0.02455 -0.08184,0.04092 -0.08184,0.04092 -0.01637,0.02455 -0.02455,0.01637 -0.02455,0.01637 -0.01637,0.02455 -0.01637,0.02455 -0.02455,0.01637 0,-0.245518 0,-0.245518 0.04092,-0.368277 q 0.04092,-0.368277 0.09821,-1.022992 l 0.06547,-0.654715 0.01637,-0.04092 0.02455,-0.04092 0.05729,-0.613796 q 0.06547,-0.613795 0.597427,-0.842944 0.531956,-0.220967 0.630164,-0.278256 0.10639,-0.06547 0.130941,-0.270069 0.01637,-0.204598 0.671084,-0.220967 0.654715,-0.02455 1.26851,-0.0491 l 0.613795,-0.01637 0.245518,-0.01637 z"
     id="svg_11" />
  <path
     style="fill:#fefefe;fill-rule:evenodd;stroke:#fefefe;stroke-width:0.04091968px"
     inkscape:connector-curvature="0"
     d="m 20.200057,9.6230631 -0.04092,0.7774739 -0.384645,-0.5565079 q -0.392829,-0.548324 -0.491036,-0.851129 -0.106391,-0.31099 -0.27007,-0.597428 -0.163679,-0.286438 -0.531956,-1.30943 -0.368277,-1.022992 -0.556508,-1.063911 -0.180046,-0.04092 -0.08184,-0.531956 0.106391,-0.491036 0.597427,-1.022992 0.491036,-0.531956 0.736555,-1.104832 0.245518,-0.572875 0.139126,-1.309429 -0.09821,-0.736555 0.08184,-0.654715 0.18823,0.08184 0.474668,0.491036 0.286438,0.409197 0.327358,3.682771 0.04092,3.273575 0,4.051049 z"
     id="svg_12" />
  <path
     inkscape:connector-curvature="0"
     id="path11"
     d="m 47.539417,0.15116887 c -0.183397,-0.1186683 -0.38837,-0.1756908 -0.59026,-0.1756908 -0.351382,0 -0.695058,0.1726085 -0.903113,0.4885438 L 37.668366,12.549702 34.427332,8.8509475 c -0.439227,-0.405322 -1.120414,-0.379122 -1.525736,0.05856 -0.405322,0.437686 -0.377581,1.1204135 0.0601,1.5241945 l 3.896022,4.446212 0.09401,0.10788 0.09863,0.112504 0.04007,0.02466 0.08168,0.08168 0.211137,0.09709 0.04778,0.02312 0.331347,0.05702 0.01387,-0.0031 c 0.292818,0.0015 0.584095,-0.10634 0.798314,-0.339053 l 0.08785,-0.141785 0.0046,-0.0062 9.185241,-13.2507881 C 48.177429,1.1466924 48.037184,0.47783427 47.539394,0.15111087 z"
     style="fill:#090509" />
</svg>
