<?xml version="1.0" encoding="UTF-8" standalone="no"?>
<!-- Generator: Adobe Illustrator 16.0.0, SVG Export Plug-In . SVG Version: 6.00 Build 0)  -->

<svg
   xmlns:dc="http://purl.org/dc/elements/1.1/"
   xmlns:cc="http://creativecommons.org/ns#"
   xmlns:rdf="http://www.w3.org/1999/02/22-rdf-syntax-ns#"
   xmlns:svg="http://www.w3.org/2000/svg"
   xmlns="http://www.w3.org/2000/svg"
   xmlns:sodipodi="http://sodipodi.sourceforge.net/DTD/sodipodi-0.dtd"
   xmlns:inkscape="http://www.inkscape.org/namespaces/inkscape"
   version="1.1"
   id="Capa_1"
   x="0px"
   y="0px"
   width="23.303px"
   height="23.303px"
   viewBox="0 0 23.303 23.303"
   style="enable-background:new 0 0 23.303 23.303;"
   xml:space="preserve"
   inkscape:version="0.48.4 r9939"
   sodipodi:docname="wearnow-scanstop.svg"
   inkscape:export-filename="/home/benny/git/wearnow/images/hicolor/48x48/actions/wearnow-scanstop.png"
   inkscape:export-xdpi="185.38"
   inkscape:export-ydpi="185.38"><metadata
     id="metadata51"><rdf:RDF><cc:Work
         rdf:about=""><dc:format>image/svg+xml</dc:format><dc:type
           rdf:resource="http://purl.org/dc/dcmitype/StillImage" /><dc:title></dc:title></cc:Work></rdf:RDF></metadata><defs
     id="defs49" /><sodipodi:namedview
     pagecolor="#ffffff"
     bordercolor="#666666"
     borderopacity="1"
     objecttolerance="10"
     gridtolerance="10"
     guidetolerance="10"
     inkscape:pageopacity="0"
     inkscape:pageshadow="2"
     inkscape:window-width="962"
     inkscape:window-height="964"
     id="namedview47"
     showgrid="false"
     inkscape:zoom="14.938346"
     inkscape:cx="10.700294"
     inkscape:cy="10.06273"
     inkscape:window-x="754"
     inkscape:window-y="40"
     inkscape:window-maximized="0"
     inkscape:current-layer="Capa_1" /><path
     d="m 15.993955,18.531601 -14.0549946,0 0,-15.5572367 14.0511126,0 0,15.6428577 1.888582,0 0,-15.9605356 c 0.0013,-1.395586 -1.483425,-2.53842789 -3.290459,-2.53842789 l -11.2447719,0 c -1.8096223,0 -3.29045791,1.14284189 -3.29045791,2.53842789 l 0,18.2015566 c 0,1.397584 1.48083561,2.539427 3.29045791,2.539427 l 11.2447719,0 c 1.807034,0 3.291751,-1.141843 3.291751,-2.539427 l 0,-2.353615 -1.885992,0 z m -7.0300882,3.595356 c -0.8336161,0 -1.5067232,-0.520473 -1.5067232,-1.162821 0,-0.644347 0.6731071,-1.16382 1.5067232,-1.16382 0.8349144,0 1.5093142,0.520472 1.5093142,1.16382 0,0.642348 -0.6743998,1.162821 -1.5093142,1.162821 z"
     id="path7"
     inkscape:connector-curvature="0"
     sodipodi:nodetypes="cccccccssssssscccsssss" /><g
     id="g17" /><g
     id="g19" /><g
     id="g21" /><g
     id="g23" /><g
     id="g25" /><g
     id="g27" /><g
     id="g29" /><g
     id="g31" /><g
     id="g33" /><g
     id="g35" /><g
     id="g37" /><g
     id="g39" /><g
     id="g41" /><g
     id="g43" /><g
     id="g45" /><g
     id="g3048"
     transform="matrix(0.06727974,0,0,0.06727974,17.296512,3.7509803)"
     style="stroke:#000000;stroke-opacity:1"><path
       transform="matrix(1.1399196,0,0,1.1399196,-348.63511,-117.32384)"
       sodipodi:open="true"
       sodipodi:end="7.9147455"
       sodipodi:start="4.3862082"
       d="M 306.05527,61.599947 A 55.419216,55.419216 0 1 1 320.4477,169.41401"
       sodipodi:ry="55.419216"
       sodipodi:rx="55.419216"
       sodipodi:cy="114.09708"
       sodipodi:cx="323.81311"
       id="path5621"
       style="opacity:0.59090905;fill:none;stroke:#000000;stroke-width:7;stroke-linecap:round;stroke-linejoin:round;stroke-miterlimit:4;stroke-opacity:1;stroke-dasharray:none;stroke-dashoffset:0"
       sodipodi:type="arc" /><path
       transform="matrix(0.60334198,0,0,0.60334198,-173.09604,-56.398994)"
       sodipodi:open="true"
       sodipodi:end="7.9147455"
       sodipodi:start="4.5650146"
       d="M 315.67527,59.278603 A 55.419216,55.419216 0 1 1 320.4477,169.41401"
       sodipodi:ry="55.419216"
       sodipodi:rx="55.419216"
       sodipodi:cy="114.09708"
       sodipodi:cx="323.81311"
       id="path5621-2"
       style="opacity:0.59090905;fill:none;stroke:#000000;stroke-width:13.22539806;stroke-linecap:round;stroke-linejoin:round;stroke-miterlimit:4;stroke-opacity:1;stroke-dasharray:none;stroke-dashoffset:0"
       sodipodi:type="arc" /></g><path
     style="fill:#cc0000;fill-opacity:1;stroke:none"
     d="m 4.4699498,7.044454 0,8.159187 9.1585502,0.03281 -0.01004,-8.0831717 z"
     id="path3820"
     inkscape:connector-curvature="0"
     sodipodi:nodetypes="ccccc" /></svg>