<?xml version="1.0" encoding="UTF-8" standalone="no"?>
<!-- Generator: Adobe Illustrator 16.0.0, SVG Export Plug-In . SVG Version: 6.00 Build 0)  -->

<svg
   xmlns:dc="http://purl.org/dc/elements/1.1/"
   xmlns:cc="http://creativecommons.org/ns#"
   xmlns:rdf="http://www.w3.org/1999/02/22-rdf-syntax-ns#"
   xmlns:svg="http://www.w3.org/2000/svg"
   xmlns="http://www.w3.org/2000/svg"
   xmlns:sodipodi="http://sodipodi.sourceforge.net/DTD/sodipodi-0.dtd"
   xmlns:inkscape="http://www.inkscape.org/namespaces/inkscape"
   version="1.1"
   id="Capa_1"
   x="0px"
   y="0px"
   width="23.303px"
   height="23.303px"
   viewBox="0 0 23.303 23.303"
   style="enable-background:new 0 0 23.303 23.303;"
   xml:space="preserve"
   inkscape:version="0.48.4 r9939"
   sodipodi:docname="wearnow.svg"
   inkscape:export-filename="/home/benny/git/wearnow/images/hicolor/48x48/actions/wearnow-scanstart.png"
   inkscape:export-xdpi="185.38"
   inkscape:export-ydpi="185.38"><metadata
     id="metadata51"><rdf:RDF><cc:Work
         rdf:about=""><dc:format>image/svg+xml</dc:format><dc:type
           rdf:resource="http://purl.org/dc/dcmitype/StillImage" /><dc:title></dc:title></cc:Work></rdf:RDF></metadata><defs
     id="defs49" /><sodipodi:namedview
     pagecolor="#ffffff"
     bordercolor="#666666"
     borderopacity="1"
     objecttolerance="10"
     gridtolerance="10"
     guidetolerance="10"
     inkscape:pageopacity="0"
     inkscape:pageshadow="2"
     inkscape:window-width="962"
     inkscape:window-height="964"
     id="namedview47"
     showgrid="false"
     inkscape:zoom="24.758563"
     inkscape:cx="8.8733111"
     inkscape:cy="12.012593"
     inkscape:window-x="-2"
     inkscape:window-y="23"
     inkscape:window-maximized="0"
     inkscape:current-layer="Capa_1" /><path
     d="m 15.552807,18.531437 -11.9077444,0 0,-15.5577615 11.9044554,0 0,15.6433845 1.600055,0 0,-15.9610731 c 0.0011,-1.3956331 -1.256794,-2.5385136 -2.78776,-2.5385136 l -9.5268535,0 c -1.5331576,0 -2.7877586,1.1428805 -2.7877586,2.5385136 l 0,18.2021701 c 0,1.397632 1.254601,2.539513 2.7877586,2.539513 l 9.5268535,0 c 1.530966,0 2.788855,-1.141881 2.788855,-2.539513 l 0,-2.353694 -1.597861,0 z m -5.9560673,3.595478 c -0.7062606,0 -1.2765336,-0.520491 -1.2765336,-1.162861 0,-0.644369 0.570273,-1.16386 1.2765336,-1.16386 0.7073613,0 1.2787303,0.52049 1.2787303,1.16386 0,0.64237 -0.571369,1.162861 -1.2787303,1.162861 z"
     id="path7"
     inkscape:connector-curvature="0"
     sodipodi:nodetypes="cccccccssssssscccsssss"
     style="fill:#272d2e;fill-opacity:1" /><g
     id="g17" /><g
     id="g19" /><g
     id="g21" /><g
     id="g23" /><g
     id="g25" /><g
     id="g27" /><g
     id="g29" /><g
     id="g31" /><g
     id="g33" /><g
     id="g35" /><g
     id="g37" /><g
     id="g39" /><g
     id="g41" /><g
     id="g43" /><g
     id="g45" /><g
     id="g3048"
     transform="matrix(0.06727974,0,0,0.06727974,17.296512,3.7509803)"
     style="stroke:#000000;stroke-opacity:1"><path
       transform="matrix(1.1399196,0,0,1.1399196,-348.63511,-117.32384)"
       sodipodi:open="true"
       sodipodi:end="8.038651"
       sodipodi:start="4.3680566"
       d="M 305.10534,61.930911 A 55.419216,55.419216 0 1 1 313.63695,168.574"
       sodipodi:ry="55.419216"
       sodipodi:rx="55.419216"
       sodipodi:cy="114.09708"
       sodipodi:cx="323.81311"
       id="path5621"
       style="opacity:0.59090905;fill:none;stroke:#000000;stroke-width:7;stroke-linecap:round;stroke-linejoin:round;stroke-miterlimit:4;stroke-opacity:1;stroke-dasharray:none;stroke-dashoffset:0"
       sodipodi:type="arc" /><path
       transform="matrix(0.60334198,0,0,0.60334198,-173.09604,-56.398994)"
       sodipodi:open="true"
       sodipodi:end="8.2934204"
       sodipodi:start="4.1467072"
       d="m 294.10888,67.310879 a 55.419216,55.419216 0 1 1 6.12714,96.940061"
       sodipodi:ry="55.419216"
       sodipodi:rx="55.419216"
       sodipodi:cy="114.09708"
       sodipodi:cx="323.81311"
       id="path5621-2"
       style="opacity:0.59090905;fill:none;stroke:#000000;stroke-width:13.22539806;stroke-linecap:round;stroke-linejoin:round;stroke-miterlimit:4;stroke-opacity:1;stroke-dasharray:none;stroke-dashoffset:0"
       sodipodi:type="arc" /></g><g
     id="g7"
     transform="matrix(0.03033955,0,0,0.03359096,4.2409332,4.8228906)"><path
       inkscape:connector-curvature="0"
       d="m 165.279,165.222 c -5.807,0 -10.523,4.717 -10.523,10.502 0,5.785 4.717,10.502 10.523,10.502 5.786,0 10.502,-4.723 10.502,-10.502 0.007,-5.78 -4.716,-10.502 -10.502,-10.502 z"
       id="path9" /></g><g
     id="g11"
     transform="matrix(0.03033955,0,0,0.03359096,4.2409332,4.8228906)"><circle
       d="m 226.225,194.159 c 0,3.94 -3.194,7.134 -7.134,7.134 -3.94,0 -7.134,-3.194 -7.134,-7.134 0,-3.94 3.194,-7.134 7.134,-7.134 3.94,0 7.134,3.194 7.134,7.134 z"
       sodipodi:ry="7.1339998"
       sodipodi:rx="7.1339998"
       sodipodi:cy="194.159"
       sodipodi:cx="219.091"
       cx="219.091"
       cy="194.159"
       r="7.1339998"
       id="circle13" /></g><g
     id="g15"
     transform="matrix(0.03213457,0,0,0.03356653,3.8807614,4.8272435)"
     style="fill:#f57900;fill-opacity:1;stroke:#ce5c00;stroke-width:7.26728535;stroke-miterlimit:4;stroke-opacity:1;stroke-dasharray:none"><path
       inkscape:connector-curvature="0"
       d="m 265.346,57.168 h -33.165 c -9.271,-9.673 -27.97,-15.664 -49.089,-15.664 -21.122,0 -39.839,5.99 -49.101,15.664 H 91.252 L 0,113.554 38.683,176.616 88.478,146.094 V 314.795 H 268.102 V 146.253 L 317.629,176.622 356.3,113.56 265.346,57.168 z m -75.09,137.628 c 0.708,4.131 -0.955,8.227 -4.336,10.7 -3.261,2.354 -7.989,2.69 -11.541,0.816 l -9.094,-4.78 -9.127,4.78 c -1.543,0.829 -3.293,1.273 -5.083,1.273 -2.324,0 -4.54,-0.733 -6.428,-2.09 -3.399,-2.486 -5.065,-6.581 -4.333,-10.7 l 1.732,-10.143 -7.377,-7.176 c -2.996,-2.934 -4.053,-7.239 -2.774,-11.217 1.309,-3.99 4.693,-6.849 8.842,-7.452 l 10.187,-1.48 4.54,-9.217 c 1.871,-3.759 5.632,-6.101 9.827,-6.101 4.191,0 7.951,2.342 9.812,6.101 l 4.558,9.217 10.169,1.48 c 4.174,0.609 7.548,3.462 8.833,7.452 1.297,3.978 0.229,8.283 -2.756,11.199 l -7.38,7.188 1.729,10.15 z m 47.198,0.84 -4.083,3.964 0.967,5.614 c 0.462,2.66 -0.606,5.29 -2.792,6.881 -2.09,1.525 -5.116,1.742 -7.41,0.541 l -5.032,-2.672 -5.044,2.66 c -0.991,0.528 -2.138,0.811 -3.272,0.811 -1.478,0 -2.912,-0.469 -4.132,-1.34 -2.186,-1.591 -3.242,-4.232 -2.773,-6.881 l 0.942,-5.614 -4.083,-3.964 c -1.922,-1.885 -2.606,-4.647 -1.777,-7.205 0.847,-2.582 3.014,-4.408 5.681,-4.792 l 5.632,-0.826 2.522,-5.101 c 1.201,-2.423 3.603,-3.918 6.305,-3.918 2.69,0 5.116,1.501 6.293,3.918 l 2.528,5.101 5.632,0.826 c 2.667,0.384 4.847,2.21 5.675,4.768 0.839,2.581 0.154,5.344 -1.779,7.229 z"
       id="path17"
       style="fill:#f57900;fill-opacity:1;stroke:#ce5c00;stroke-width:7.26728535;stroke-miterlimit:4;stroke-opacity:1;stroke-dasharray:none" /></g></svg>